<svg xmlns="http://www.w3.org/2000/svg" width="32" height="32" viewBox="0 0 32 32">
  <defs>
    <linearGradient id="bgGradient" x1="0%" y1="0%" x2="100%" y2="100%">
      <stop offset="0%" style="stop-color:#3b82f6;stop-opacity:1" />
      <stop offset="100%" style="stop-color:#9333ea;stop-opacity:1" />
    </linearGradient>
    <linearGradient id="mGradient" x1="0%" y1="0%" x2="0%" y2="100%">
      <stop offset="0%" style="stop-color:#ffffff;stop-opacity:1" />
      <stop offset="100%" style="stop-color:#e0e7ff;stop-opacity:1" />
    </linearGradient>
  </defs>

  <!-- Background rounded square -->
  <rect x="2" y="2" width="28" height="28" rx="6" ry="6" fill="url(#bgGradient)" />

  <!-- Markdown "M" letter with down arrow incorporated -->
  <g fill="url(#mGradient)">
    <!-- Left vertical line of M -->
    <rect x="7" y="9" width="2.5" height="14" rx="1" />

    <!-- Left diagonal of M going down -->
    <path d="M 9 10 L 13 16 L 14.5 14.5 L 10.5 9 Z" />

    <!-- Right diagonal of M going down -->
    <path d="M 16.5 16 L 20.5 10 L 22 11.5 L 18 16 Z" />

    <!-- Right vertical line of M -->
    <rect x="22.5" y="9" width="2.5" height="14" rx="1" />

    <!-- Small down arrow at bottom center (preview concept) -->
    <path d="M 14.5 20 L 16 21.5 L 17.5 20 L 16.5 20 L 16.5 17 L 15.5 17 L 15.5 20 Z" opacity="0.9" />
  </g>

  <!-- Subtle highlight on top left for depth -->
  <ellipse cx="10" cy="8" rx="4" ry="2" fill="white" opacity="0.15" />
</svg>
